<?xml version="1.0" encoding="UTF-8"?>
<svg version="1.1" xmlns="http://www.w3.org/2000/svg" width="500" height="500">
<path d="M0 0 C4.18098334 3.61084925 8.23371612 7.70114836 10 13 C11.03882582 27.61168124 8.61987051 41.66387349 6 56 C7.093125 55.979375 8.18625 55.95875 9.3125 55.9375 C13 56 13 56 16 57 C16.24907104 55.19196899 16.24907104 55.19196899 16.50317383 53.34741211 C17.12503799 48.85265518 17.75993757 44.35981818 18.39868164 39.86743164 C18.6727205 37.92717187 18.94327695 35.98641681 19.21020508 34.04516602 C19.59570482 31.24616511 19.99391853 28.44921664 20.39453125 25.65234375 C20.56816948 24.36129982 20.56816948 24.36129982 20.74531555 23.04417419 C21.84307505 15.53348175 24.08624208 8.94823327 29 3 C35.92869992 -1.74270788 42.58350446 -4.10466504 51 -3 C60.32881363 -0.21273251 64.44095592 5.78438374 69.09375 13.91015625 C70.21153845 16.01635949 71 17.58784449 71 20 C74.01982884 20.50682442 77.04062817 21.00563335 80.0625 21.5 C81.33383789 21.71462891 81.33383789 21.71462891 82.63085938 21.93359375 C92.33554271 23.61277194 92.33554271 23.61277194 101.625 21.0625 C106.72639308 18.49338688 111.11652278 17.86887377 116.8125 17.9375 C117.78832031 17.94652344 118.76414062 17.95554687 119.76953125 17.96484375 C120.87361328 17.98224609 120.87361328 17.98224609 122 18 C123.42917743 20.85835486 123.12980809 23.31257719 123.1328125 26.50390625 C123.13410156 27.80134766 123.13539063 29.09878906 123.13671875 30.43554688 C123.13462402 31.11222412 123.1325293 31.78890137 123.13037109 32.48608398 C123.12501202 34.55785415 123.13032518 36.62940839 123.13671875 38.70117188 C123.13478516 40.64540039 123.13478516 40.64540039 123.1328125 42.62890625 C123.13168457 43.82588135 123.13055664 45.02285645 123.12939453 46.25610352 C123 49 123 49 122 50 C116.25883309 50.37394574 110.65554456 49.98357297 105 49 C105.42152344 49.81984375 105.84304688 50.6396875 106.27734375 51.484375 C106.82519531 52.56203125 107.37304688 53.6396875 107.9375 54.75 C108.48277344 55.81734375 109.02804687 56.8846875 109.58984375 57.984375 C110.71216275 60.38445885 111.50501659 62.41856752 112 65 C112.66 65 113.32 65 114 65 C114.4021875 65.74830078 114.4021875 65.74830078 114.8125 66.51171875 C118.12693768 72.58455358 121.72800731 78.43335721 125.42578125 84.27734375 C127 87 127 87 127 89 C129.54457907 90.36603718 132.14084418 91.47014111 134.828125 92.515625 C149.86322634 98.38550495 149.86322634 98.38550495 156 104 C156 104.66 156 105.32 156 106 C156.5775 106.226875 157.155 106.45375 157.75 106.6875 C160.5663661 108.33038023 162.08077114 110.39533227 164 113 C163 114 163 114 159.375 114.125 C155.50112278 114.08304465 151.81834356 113.63639059 148 113 C148.60457031 113.6909375 149.20914063 114.381875 149.83203125 115.09375 C152.1218403 118.16333186 153.36094598 120.91788568 154.6875 124.5 C155.10386719 125.6034375 155.52023437 126.706875 155.94921875 127.84375 C158.94169231 136.8322951 158.94648556 146.77075214 154.8125 155.4375 C152.41964752 159.64585974 149.64547485 163.77145629 146 167 C145.34 167 144.68 167 144 167 C144 167.66 144 168.32 144 169 C134.33357384 175.11740013 125.33445519 177.22148836 114 175 C103.1008636 171.88365433 96.17361079 166.38703755 90.41015625 156.671875 C87.24963575 150.68352037 86.76800397 145.61188672 87 139 C86.18015625 139.34933594 85.3603125 139.69867188 84.515625 140.05859375 C83.43796875 140.51363281 82.3603125 140.96867188 81.25 141.4375 C80.18265625 141.88996094 79.1153125 142.34242188 78.015625 142.80859375 C73.10231631 144.74973255 68.83455702 145.16179955 63.56933594 145.20532227 C62.82748047 145.21522186 62.085625 145.22512146 61.32128906 145.23532104 C58.87568321 145.26684147 56.43005795 145.29165595 53.984375 145.31640625 C52.2861481 145.33698395 50.58792623 145.35798064 48.88970947 145.37937927 C44.4247241 145.43451567 39.95969315 145.48396207 35.49462891 145.53222656 C30.93648228 145.58250322 26.37840166 145.63815709 21.8203125 145.69335938 C12.88026475 145.80083778 3.94015964 145.90230559 -5 146 C-5.31235596 146.87462891 -5.62471191 147.74925781 -5.9465332 148.65039062 C-6.37281006 149.80732422 -6.79908691 150.96425781 -7.23828125 152.15625 C-7.86150269 153.87038086 -7.86150269 153.87038086 -8.49731445 155.61914062 C-12.13761776 163.8093795 -18.37611864 169.5601007 -26.5390625 173.1015625 C-35.89446308 176.5170262 -45.30681197 177.15227521 -54.75 173.375 C-64.15167994 168.6826915 -70.2817603 161.22594267 -74.265625 151.6953125 C-75.16516936 148.39379331 -75.11715124 145.40575394 -75 142 C-76.04800781 142.03480469 -77.09601563 142.06960937 -78.17578125 142.10546875 C-79.55467147 142.13360937 -80.93357902 142.16090924 -82.3125 142.1875 C-83.00279297 142.21263672 -83.69308594 142.23777344 -84.40429688 142.26367188 C-89.48359791 142.33728493 -89.48359791 142.33728493 -91.92578125 140.7421875 C-94.38133793 136.75972104 -94.38799193 132.12009874 -93.5625 127.609375 C-92.82632066 125.01601595 -91.95062451 122.52266894 -91 120 C-90.65839844 119.03835937 -90.31679687 118.07671875 -89.96484375 117.0859375 C-87.05916689 109.46222941 -82.98429947 103.41467239 -78 97 C-77.34 96.01 -76.68 95.02 -76 94 C-75.34 94 -74.68 94 -74 94 C-73.74734375 93.40703125 -73.4946875 92.8140625 -73.234375 92.203125 C-69.7059827 85.90561469 -61.91361925 82.21122742 -55.8125 78.6875 C-55.23081055 78.35008789 -54.64912109 78.01267578 -54.04980469 77.66503906 C-50.46522269 75.64960325 -46.93718883 74.1769745 -43 73 C-43.32419922 72.29915283 -43.64839844 71.59830566 -43.98242188 70.8762207 C-47.66105498 60.47843362 -44.38591481 46.71352934 -42.87597656 36.03100586 C-42.49958423 33.30949377 -42.1678186 30.58467194 -41.8359375 27.85742188 C-40.45505711 17.49364807 -38.82561977 9.52043985 -31 2 C-21.81098376 -4.79200149 -10.09129924 -5.22585139 0 0 Z M54 36 C53.63323686 38.18542332 53.282173 40.37348406 52.9375 42.5625 C52.74027344 43.78066406 52.54304687 44.99882812 52.33984375 46.25390625 C51.99504667 50.05460049 52.31150622 53.2590233 53 57 C53.88042969 57.13277344 54.76085937 57.26554687 55.66796875 57.40234375 C56.82941406 57.57894531 57.99085938 57.75554687 59.1875 57.9375 C60.33605469 58.11152344 61.48460937 58.28554687 62.66796875 58.46484375 C63.76753906 58.64144531 64.86710938 58.81804687 66 59 C66.94359375 59.15082031 67.8871875 59.30164063 68.859375 59.45703125 C71 60 71 60 72.0625 61.75 C72.5265625 62.86375 72.5265625 62.86375 73 64 C73.680625 64.845625 74.36125 65.69125 75.0625 66.5625 C79.15304737 71.7086725 78.55463685 77.72453143 78 84 C76.82348007 89.22698168 75.22375223 94.28784588 73.5625 99.375 C72.92638957 101.37116243 72.29519903 103.36877241 71.66746521 105.36758423 C71.10020485 107.16626802 70.52034434 108.96096404 69.93969727 110.75537109 C69.04799743 113.8342723 68.45569823 116.83021229 68 120 C76.34527125 117.97163546 82.61003145 113.97383782 87.4375 106.75 C91.39304568 98.58400952 89.93912568 89.22499669 88.34765625 80.64453125 C88.16867294 79.61688156 87.98968964 78.58923187 87.80528259 77.53044128 C87.23756598 74.28862893 86.65040915 71.05070455 86.0625 67.8125 C85.67122868 65.59853618 85.28124262 63.38434481 84.89257812 61.16992188 C83.94321557 55.77723023 82.97792168 50.38758179 82 45 C81.42032471 44.88406494 80.84064941 44.76812988 80.2434082 44.64868164 C74.16227214 43.43245443 68.08113607 42.21622721 62 41 C60.65264771 40.78621704 60.65264771 40.78621704 59.27807617 40.56811523 C57 40 57 40 55.6875 37.9375 C55.460625 37.298125 55.23375 36.65875 55 36 C54.67 36 54.34 36 54 36 Z M35 80 C33.8938995 83.29102779 32.79007896 86.58279239 31.6875 89.875 C31.2244043 91.25171875 31.2244043 91.25171875 30.75195312 92.65625 C26.04060216 104.56999226 26.04060216 104.56999226 25 117 C26.08436528 118.7683166 26.08436528 118.7683166 28 120 C30.97192762 120.36319309 30.97192762 120.36319309 34.1875 120.1875 C35.81751953 120.14689453 35.81751953 120.14689453 37.48046875 120.10546875 C38.31191406 120.07066406 39.14335937 120.03585938 40 120 C43.21298084 113.29492241 45.52830832 106.50004076 47.625 99.375 C47.9240625 98.37726563 48.223125 97.37953125 48.53125 96.3515625 C50.05805983 91.24418095 51.535445 86.1259425 53 81 C47.06 80.67 41.12 80.34 35 80 Z M110 130 C107.19938733 134.78814424 105.84919894 139.52562859 107 145 C109.21886084 149.5746884 112.26327911 153.0171866 117 155 C122.58273109 156.37280273 126.1312146 156.31067114 131.16796875 153.4296875 C135.51943645 150.03387262 137.64936284 145.92850439 138.625 140.5625 C137.60823416 134.76693472 135.10523334 130.04331471 130.875 125.9375 C123.23394624 123.44585203 115.54463093 123.74451896 110 130 Z M-55 143 C-52.02308157 151.36795201 -52.02308157 151.36795201 -48.75 154 C-43.38307181 155.95161025 -39.66973409 156.50092023 -34.25 154.875 C-28.88352262 151.77895536 -27.28929818 148.72324544 -25 143 C-34.9 143 -44.8 143 -55 143 Z " fill="#12AA3A" transform="translate(227,107)"/>
<path d="M0 0 C1.25719849 0.41536011 1.25719849 0.41536011 2.53979492 0.83911133 C4.82421875 1.6640625 4.82421875 1.6640625 8.3125 3.375 C9.03051758 5.48193359 9.03051758 5.48193359 9.3125 7.375 C2.63707893 6.82261222 -3.81837035 5.84905093 -10.375 4.5 C-78.39000716 -8.85889194 -155.36669488 -4.15607372 -219.4597168 22.84887695 C-228.72083836 26.74960222 -228.72083836 26.74960222 -233.3125 25.875 C-236.82737854 23.65507671 -237.46872289 21.28791599 -238.6875 17.375 C-239.1875 13.6875 -239.1875 13.6875 -238.6875 10.375 C-234.9313757 6.67655131 -230.6323589 4.8802955 -225.75 3.125 C-224.94006592 2.83197998 -224.13013184 2.53895996 -223.2956543 2.23706055 C-196.5610852 -7.11204899 -168.88701103 -12.46215349 -140.6875 -14.625 C-139.93839355 -14.68284668 -139.18928711 -14.74069336 -138.41748047 -14.80029297 C-92.93120221 -18.15086691 -43.34530064 -14.60097913 0 0 Z " fill="#042D68" transform="translate(367.6875,298.625)"/>
<path d="M0 0 C6.30432852 3.17353486 10.68255162 7.78843402 13.30859375 14.359375 C15.28059912 21.46603586 13.83234936 27.74412012 10.4296875 34.16015625 C9.7696875 34.16015625 9.1096875 34.16015625 8.4296875 34.16015625 C8.15125 35.02640625 8.15125 35.02640625 7.8671875 35.91015625 C5.46393989 39.67176121 1.57752601 41.32873489 -2.5078125 42.91015625 C-10.04892398 43.82423037 -15.91266768 42.989972 -22.5703125 39.16015625 C-28.11959396 34.13611542 -30.94062458 29.15970696 -31.53515625 21.72265625 C-31.62008524 15.53227685 -29.31618897 10.94655396 -25.5703125 6.16015625 C-18.49661832 -0.89405117 -9.63090006 -3.14687464 0 0 Z " fill="#15AA3E" transform="translate(225.5703125,56.83984375)"/>
<path d="M0 0 C0 0.66 0 1.32 0 2 C0.60328125 2.2371875 1.2065625 2.474375 1.828125 2.71875 C5.96358215 5.15837221 7.44711504 9.61754994 9 14 C10.02644327 19.8428309 9.35257161 24.94878439 6.3984375 30.11328125 C2.49971064 35.37329543 -2.44205912 39.79548025 -9 41 C-15.73932801 41.80718187 -21.27647619 40.73227964 -27 37 C-32.82802315 31.78253166 -35.67859654 26.98540291 -36.3125 19.125 C-36.12199568 12.4827493 -33.62941894 6.76168805 -29 2 C-19.9953676 -4.7534743 -10.06905322 -4.55957127 0 0 Z " fill="#14A93C" transform="translate(291,59)"/>
<path d="M0 0 C24.05098712 0.65355943 47.89120846 5.44842744 70.6875 13.0625 C71.41316162 13.29565918 72.13882324 13.52881836 72.88647461 13.76904297 C74.88671875 14.47265625 74.88671875 14.47265625 78 16 C78.69458008 18.09545898 78.69458008 18.09545898 79 20 C72.32457893 19.44761222 65.86912965 18.47405093 59.3125 17.125 C6.78739114 6.80849365 -46.54756022 10.098119 -99 19 C-98.67 18.34 -98.34 17.68 -98 17 C-96.17407227 16.42163086 -96.17407227 16.42163086 -93.81640625 15.96484375 C-92.54893555 15.71057617 -92.54893555 15.71057617 -91.25585938 15.45117188 C-90.36705078 15.28166016 -89.47824219 15.11214844 -88.5625 14.9375 C-86.81333921 14.59480207 -85.06461702 14.24985556 -83.31640625 13.90234375 C-82.14766968 13.67792603 -82.14766968 13.67792603 -80.95532227 13.44897461 C-78.9358419 13.06613111 -78.9358419 13.06613111 -77 12 C-75.25420278 11.8103703 -73.50246524 11.67489633 -71.75 11.5625 C-67.60250622 11.27786807 -63.47090714 10.95768377 -59.3359375 10.52734375 C-31.64074115 7.68346207 -3.80787999 7.83781856 24 8 C24.33 7.34 24.66 6.68 25 6 C26.32 6.66 27.64 7.32 29 8 C28.505 7.01 28.505 7.01 28 6 C25.32140609 5.37519405 22.71049819 4.87030214 20 4.4375 C19.227771 4.30674072 18.45554199 4.17598145 17.65991211 4.04125977 C13.63478982 3.3733004 9.62713788 2.81125981 5.5625 2.4375 C2 2 2 2 0 0 Z " fill="#0A2A5D" transform="translate(298,286)"/>
<path d="M0 0 C-7.23328454 7.23328454 -19.56963318 7.64615074 -29.17355347 7.71894836 C-30.77976604 7.71550728 -32.38597752 7.7115228 -33.9921875 7.70703125 C-35.67613487 7.72018081 -37.36006658 7.73549487 -39.04397583 7.75285339 C-43.42674249 7.79233607 -47.80909316 7.80286981 -52.1920166 7.80688477 C-56.68412607 7.81628633 -61.17599809 7.85374283 -65.66796875 7.88867188 C-74.44531739 7.95287259 -83.22242757 7.98641956 -92 8 C-93.32 11.63 -94.64 15.26 -96 19 C-97.44417248 14.66748257 -96.31952436 12.03845416 -95 7.75 C-93 5 -93 5 -89.29882812 4.32763672 C-83.30257275 3.8345138 -77.29741297 3.91940274 -71.28578186 3.98596573 C-69.17387626 4.00828678 -67.06206416 4.0221704 -64.95007324 4.03366089 C-58.95177609 4.0669771 -52.95363456 4.10879425 -46.95556641 4.17138672 C-43.26880794 4.20926139 -39.58220335 4.2321225 -35.89527893 4.24569321 C-34.50154812 4.25368318 -33.10783647 4.26719923 -31.71421814 4.28662491 C-23.83654608 4.39457806 -17.29803189 4.03505495 -10 1 C-6.5816799 0.14541997 -3.52141694 -0.10061191 0 0 Z " fill="#158F31" transform="translate(314,245)"/>
<path d="M0 0 C9.34137692 1.8573498 18.53319655 3.93865841 27.5625 7 C28.2939624 7.2367041 29.0254248 7.4734082 29.77905273 7.71728516 C31.81640625 8.4375 31.81640625 8.4375 35 10 C35.69897461 12.09765625 35.69897461 12.09765625 36 14 C29.32457893 13.44761222 22.86912965 12.47405093 16.3125 11.125 C-0.72476526 7.7786946 -17.66436847 5.75074302 -35.01953125 5.2109375 C-40.03993396 5.04176635 -45.00972525 4.56076489 -50 4 C-50 3.67 -50 3.34 -50 3 C-26.98505019 2.46136399 -4.71632557 4.37302365 18 8 C18 7.34 18 6.68 18 6 C11.73 4.68 5.46 3.36 -1 2 C-0.67 1.34 -0.34 0.68 0 0 Z " fill="#0A1F45" transform="translate(341,292)"/>
<path d="M0 0 C0 0.66 0 1.32 0 2 C-14 6 -14 6 -28 10 C-28 10.66 -28 11.32 -28 12 C-28.63808594 12.1959375 -29.27617187 12.391875 -29.93359375 12.59375 C-32.5242472 13.5313968 -34.71499827 14.45375823 -37 16 C-38.26055634 18.69803287 -38.42939677 21.06865141 -38 24 C-37.05309824 26.19747895 -37.05309824 26.19747895 -36 28 C-29.68553462 27.71935709 -26.27624632 26.62741935 -21 23 C-18.78220988 22.36041259 -16.57224722 21.92755335 -14.3046875 21.5 C-11.33104205 20.85487014 -8.61934445 19.7817604 -5.796875 18.6640625 C-3.56896141 17.84070313 -1.34370985 17.36620466 1 17 C1 17.66 1 18.32 1 19 C-0.0415625 19.36351562 -1.083125 19.72703125 -2.15625 20.1015625 C-2.84162842 20.34197266 -3.52700684 20.58238281 -4.2331543 20.83007812 C-5.75737395 21.364581 -7.28229027 21.89710096 -8.80786133 22.42773438 C-12.73597201 23.80473987 -16.62677139 25.23038931 -20.48046875 26.8046875 C-21.18816406 27.08876465 -21.89585937 27.3728418 -22.625 27.66552734 C-23.97123741 28.21020531 -25.31155071 28.76983031 -26.64453125 29.34619141 C-29.92634544 30.66011858 -31.83639313 31.03157325 -35.33984375 30.35546875 C-38 29 -38 29 -39.875 25.8125 C-41.04603901 21.84397891 -41.61830807 19.09629099 -41 15 C-36.99353195 10.96179755 -32.31134546 9.34493781 -27.0625 7.5 C-26.22654297 7.19956787 -25.39058594 6.89913574 -24.52929688 6.58959961 C-5.93423163 0 -5.93423163 0 0 0 Z " fill="#071D44" transform="translate(170,294)"/>
<path d="M0 0 C0.495 0.99 0.495 0.99 1 2 C-0.1559668 1.98952637 -1.31193359 1.97905273 -2.50292969 1.96826172 C-30.93843086 1.73386954 -58.93530506 1.95726868 -87.09765625 6.4140625 C-91 7 -91 7 -94 7 C-94 6.34 -94 5.68 -94 5 C-62.71553131 -0.19957179 -31.63913218 -2.32213814 0 0 Z " fill="#09214A" transform="translate(283,284)"/>
<path d="M0 0 C1.38191002 3.75001659 0.58700308 6.16575142 -0.6171875 9.90234375 C-0.97683594 11.03994141 -1.33648437 12.17753906 -1.70703125 13.34960938 C-2.28517578 15.12561523 -2.28517578 15.12561523 -2.875 16.9375 C-3.62447322 19.27928408 -4.37194616 21.6217095 -5.1171875 23.96484375 C-5.45347168 25.0024585 -5.78975586 26.04007324 -6.13623047 27.10913086 C-6.91965054 29.73108595 -7.51530765 32.30881226 -8 35 C-0.42425292 32.68307132 4.69447514 29.78809769 9 23 C11.38997512 17.86728591 12.40441413 12.5985072 13 7 C13.66 7 14.32 7 15 7 C16.82374395 13.17267184 15.18563645 17.40972124 12.6015625 23.19140625 C10.68691663 26.54904132 8.64644786 28.57629856 5.546875 30.828125 C3.81835268 31.9893966 3.81835268 31.9893966 2.625 34.25 C-0.16086661 37.25016405 -4.0433736 37.57731312 -8 38 C-11.0625 37.625 -11.0625 37.625 -13 37 C-12.01 36.505 -12.01 36.505 -11 36 C-10.59270772 33.67843403 -10.25561323 31.3431213 -10 29 C-9.34 29 -8.68 29 -8 29 C-7.95101563 28.43152344 -7.90203125 27.86304688 -7.8515625 27.27734375 C-6.90897514 17.54269158 -3.56691507 9.05342947 0 0 Z " fill="#258E41" transform="translate(304,191)"/>
<path d="M0 0 C0.84626953 0.04382813 1.69253906 0.08765625 2.56445312 0.1328125 C3.44939453 0.184375 4.33433594 0.2359375 5.24609375 0.2890625 C6.13490234 0.33289063 7.02371094 0.37671875 7.93945312 0.421875 C14.55471587 0.78518462 14.55471587 0.78518462 15.68359375 1.9140625 C15.3056589 5.81938933 14.92306862 9.1956379 13.68359375 12.9140625 C13.02359375 12.9140625 12.36359375 12.9140625 11.68359375 12.9140625 C12.29477744 9.34882431 13.30381874 6.25132319 14.68359375 2.9140625 C13.719375 2.92566406 12.75515625 2.93726563 11.76171875 2.94921875 C9.86679687 2.96275391 9.86679687 2.96275391 7.93359375 2.9765625 C6.680625 2.98816406 5.42765625 2.99976563 4.13671875 3.01171875 C1.35495661 2.93304901 -0.68422365 2.64270309 -3.31640625 1.9140625 C-3.57164062 2.996875 -3.826875 4.0796875 -4.08984375 5.1953125 C-4.95341821 8.65570257 -5.96115344 12.04698868 -7.04296875 15.4453125 C-7.35234375 16.42113281 -7.66171875 17.39695313 -7.98046875 18.40234375 C-8.62181959 20.41243114 -9.27028124 22.42026337 -9.92578125 24.42578125 C-11.72756696 30.15667108 -12.702663 34.90562413 -12.31640625 40.9140625 C-7.69640625 40.9140625 -3.07640625 40.9140625 1.68359375 40.9140625 C2.34359375 39.2640625 3.00359375 37.6140625 3.68359375 35.9140625 C4.30859375 37.7265625 4.30859375 37.7265625 4.68359375 39.9140625 C4.02359375 40.9040625 3.36359375 41.8940625 2.68359375 42.9140625 C0.0851187 43.21801256 -2.22279732 43.3326933 -4.81640625 43.2890625 C-5.85087891 43.30646484 -5.85087891 43.30646484 -6.90625 43.32421875 C-8.91015625 43.3125 -8.91015625 43.3125 -12.31640625 42.9140625 C-15.15708797 38.65303992 -14.71617916 34.91514316 -14.31640625 29.9140625 C-13.37890625 26.7265625 -13.37890625 26.7265625 -12.31640625 23.9140625 C-12.15140625 22.6765625 -11.98640625 21.4390625 -11.81640625 20.1640625 C-11.31640625 16.9140625 -11.31640625 16.9140625 -9.31640625 14.9140625 C-8.43974955 11.29785363 -7.78085035 7.66122249 -7.09765625 4.00390625 C-6.83984375 2.98425781 -6.58203125 1.96460938 -6.31640625 0.9140625 C-3.92826839 -0.28000643 -2.65063401 -0.13868481 0 0 Z " fill="#288940" transform="translate(265.31640625,185.0859375)"/>
<path d="M0 0 C7.36172443 4.01860851 11.66400732 11.5697231 14.875 19.125 C14.875 19.785 14.875 20.445 14.875 21.125 C17.89482884 21.63182442 20.91562817 22.13063335 23.9375 22.625 C24.78505859 22.76808594 25.63261719 22.91117188 26.50585938 23.05859375 C36.21054271 24.73777194 36.21054271 24.73777194 45.5 22.1875 C50.60139308 19.61838688 54.99152278 18.99387377 60.6875 19.0625 C61.66332031 19.07152344 62.63914062 19.08054687 63.64453125 19.08984375 C64.74861328 19.10724609 64.74861328 19.10724609 65.875 19.125 C65.545 19.785 65.215 20.445 64.875 21.125 C63.740625 21.104375 62.60625 21.08375 61.4375 21.0625 C56.86717245 21.0543241 52.40261738 21.53808664 47.875 22.125 C47.38 23.61 47.38 23.61 46.875 25.125 C40.40383086 29.16948071 30.61140181 25.84890984 23.5 24.6875 C22.70722656 24.56568359 21.91445313 24.44386719 21.09765625 24.31835938 C17.43090743 23.7196432 15.00563489 23.21208992 11.875 21.125 C11.12777743 19.40313929 10.3851887 17.67838273 9.703125 15.9296875 C8.84304217 13.85674994 8.84304217 13.85674994 6.6875 11.4375 C4.875 9.125 4.875 9.125 4.875 5.125 C3.55241528 4.43725595 2.21513497 3.77788627 0.875 3.125 C-0.218125 2.58875 -1.31125 2.0525 -2.4375 1.5 C-8.41253735 -0.72798003 -12.36938643 -0.20835685 -18.125 2.125 C-20.26953125 1.68359375 -20.26953125 1.68359375 -22.125 1.125 C-14.28944652 -2.29415061 -8.06715491 -3.44687528 0 0 Z " fill="#2A8A3F" transform="translate(283.125,105.875)"/>
<path d="M0 0 C-0.33 1.32 -0.66 2.64 -1 4 C-1.99 4 -2.98 4 -4 4 C-4.433125 4.928125 -4.433125 4.928125 -4.875 5.875 C-6 8 -6 8 -8 10 C-11.73275945 19.57294397 -12.1465201 30.28870368 -12.75390625 40.453125 C-13 43 -13 43 -14 45 C-13.91783699 46.62626103 -13.81036109 48.25130642 -13.6875 49.875 C-13.66424553 53.88639619 -13.66059812 54.61708506 -16.4375 57.75 C-21.17583589 59.412574 -24.33313514 58.53488 -29 57 C-30.07174763 53.34811918 -29.76411467 50.73567172 -29 47 C-28.67 47 -28.34 47 -28 47 C-28 49.64 -28 52.28 -28 55 C-26.906875 54.979375 -25.81375 54.95875 -24.6875 54.9375 C-21 55 -21 55 -18 56 C-17.83395264 54.794646 -17.66790527 53.58929199 -17.49682617 52.34741211 C-16.87496201 47.85265518 -16.24006243 43.35981818 -15.60131836 38.86743164 C-15.3272795 36.92717187 -15.05672305 34.98641681 -14.78979492 33.04516602 C-14.40429518 30.24616511 -14.00608147 27.44921664 -13.60546875 24.65234375 C-13.48970993 23.7916478 -13.37395111 22.93095184 -13.25468445 22.04417419 C-12.12853528 14.33924425 -9.70778377 8.32608443 -5 2 C-2 0 -2 0 0 0 Z " fill="#26893E" transform="translate(261,108)"/>
<path d="M0 0 C0.33 0 0.66 0 1 0 C1 2.31 1 4.62 1 7 C1.66 7 2.32 7 3 7 C3.18175781 7.71027344 3.36351562 8.42054688 3.55078125 9.15234375 C3.80214844 10.07144531 4.05351562 10.99054688 4.3125 11.9375 C4.67794922 13.31228516 4.67794922 13.31228516 5.05078125 14.71484375 C5.36402344 15.46894531 5.67726563 16.22304688 6 17 C6.99 17.33 7.98 17.66 9 18 C10.55844612 20.30650026 11.81513945 22.55105296 12.875 25.125 C14.40087855 27.66813091 16.47070463 28.5356711 19 30 C19 30.66 19 31.32 19 32 C27.0130305 34.24927172 38.18762636 36.61262479 45.77734375 32.4921875 C46.51082031 31.99976563 47.24429688 31.50734375 48 31 C50.8125 30.8125 50.8125 30.8125 53 31 C51.49830548 34.00338904 49.16886373 34.26443701 46.1015625 35.33203125 C36.14195205 38.49763234 26.1569489 36.73109027 17 32 C8.75913517 27.37197809 3.95230307 20.0080818 0.5625 11.3125 C-0.09566944 7.43661332 -0.13777069 3.92646477 0 0 Z " fill="#25833D" transform="translate(314,246)"/>
<path d="M0 0 C6.85420345 2.2328087 11.62444936 6.69215284 15 13 C17.49982549 19.2551189 17.17258385 24.68743693 15 31 C14.35855163 32.34564713 13.69843748 33.68303102 13 35 C12.34 35 11.68 35 11 35 C10.6596875 35.928125 10.6596875 35.928125 10.3125 36.875 C8.62070165 39.61410209 7.00755839 40.05024472 4 41 C4.6875 38.125 4.6875 38.125 6 35 C7.65204456 34.29788106 9.31923769 33.63028587 11 33 C14.27275078 28.0129512 13.6224037 21.12174358 12.5 15.4921875 C10.66030351 9.15777798 7.95359861 6.73465315 2.29296875 3.41015625 C-1.52789781 1.773937 -4.2397762 1.69546536 -8.375 1.8125 C-9.62023437 1.83957031 -10.86546875 1.86664063 -12.1484375 1.89453125 C-13.55996094 1.94673828 -13.55996094 1.94673828 -15 2 C-10.28050895 -1.14632736 -5.51881053 -0.65209826 0 0 Z " fill="#29863F" transform="translate(223,56)"/>
<path d="M0 0 C-0.53625 0.2475 -1.0725 0.495 -1.625 0.75 C-7.69332926 3.93521953 -7.69332926 3.93521953 -11.875 9.25 C-13.55933053 14.8644351 -14.07947824 18.88102419 -11.3125 24.3125 C-7.50427025 28.73828053 -4.02580288 30.55148472 1.87109375 31.14453125 C5.72988354 30.88255837 8.75098622 28.96771257 12 27 C12.66 26.67 13.32 26.34 14 26 C13.8125 28.375 13.8125 28.375 13 31 C8.69688021 33.91501663 2.98408645 33.71304127 -2 33 C-7.3621757 31.09900268 -11.98668303 28.99958701 -15 24 C-15 23.01 -15 22.02 -15 21 C-15.66 21 -16.32 21 -17 21 C-16.34 17.04 -15.68 13.08 -15 9 C-14.34 9 -13.68 9 -13 9 C-12.9175 8.2575 -12.835 7.515 -12.75 6.75 C-10.78913311 -0.43984526 -6.5222258 -0.43481505 0 0 Z " fill="#218238" transform="translate(348,231)"/>
<path d="M0 0 C7.90350412 1.60834424 12.37727527 6.72630215 17 13 C20.8906034 24.67181019 17.48780937 39.30137259 15 51 C14.67 51 14.34 51 14 51 C13.82044636 45.19443232 13.6994709 39.62502514 15 33.9375 C17.07639843 24.35375643 17.07639843 24.35375643 14.46875 15.1875 C13.23858802 13.45317328 11.96080696 11.75122644 10.62890625 10.09375 C9 8 9 8 8 5 C0.13642147 1.33936861 -7.49991468 1.69762542 -16 2 C-11.10776776 -1.26148816 -5.72231794 -0.43340633 0 0 Z " fill="#2C8242" transform="translate(219,104)"/>
<path d="M0 0 C0.33 0.66 0.66 1.32 1 2 C-0.07543783 2.98783194 -1.16073217 3.96493943 -2.25 4.9375 C-2.85328125 5.48277344 -3.4565625 6.02804688 -4.078125 6.58984375 C-6.08467305 8.06212799 -7.57002449 8.57529189 -10 9 C-10 9.66 -10 10.32 -10 11 C-10.66 11 -11.32 11 -12 11 C-12.2475 11.7425 -12.495 12.485 -12.75 13.25 C-14.10494919 16.23088821 -15.66969785 17.74251979 -18 20 C-18.69748583 21.31747324 -19.36959957 22.64914193 -20 24 C-21.17749808 25.17749808 -22.37774564 26.3341596 -23.625 27.4375 C-25.33031395 29.02846455 -25.33031395 29.02846455 -25 32 C-26.32 32 -27.64 32 -29 32 C-27.64550825 27.09732876 -25.57075756 23.66284679 -22.5 19.625 C-22.09652344 19.07972656 -21.69304687 18.53445312 -21.27734375 17.97265625 C-20.23912942 16.60550273 -19.12478686 15.29686247 -18 14 C-17.34 14 -16.68 14 -16 14 C-15.75894531 13.41347656 -15.51789063 12.82695312 -15.26953125 12.22265625 C-13.75653781 9.57375388 -12.12011828 8.26503004 -9.6875 6.4375 C-8.88828125 5.83679688 -8.0890625 5.23609375 -7.265625 4.6171875 C-4.91377799 2.93845532 -2.53450191 1.38988814 0 0 Z " fill="#20923D" transform="translate(169,187)"/>
<path d="M0 0 C-3.19666304 2.13110869 -4.28852568 2.2940146 -7.99609375 2.4921875 C-9.01622559 2.55535156 -10.03635742 2.61851562 -11.08740234 2.68359375 C-12.19293457 2.74675781 -13.2984668 2.80992187 -14.4375 2.875 C-32.78695168 4.09467909 -50.88154121 6.92505507 -69 10 C-68.67 9.34 -68.34 8.68 -68 8 C-66.17407227 7.42163086 -66.17407227 7.42163086 -63.81640625 6.96484375 C-62.54893555 6.71057617 -62.54893555 6.71057617 -61.25585938 6.45117188 C-60.36705078 6.28166016 -59.47824219 6.11214844 -58.5625 5.9375 C-56.81333921 5.59480207 -55.06461702 5.24985556 -53.31640625 4.90234375 C-52.53724854 4.75273193 -51.75809082 4.60312012 -50.95532227 4.44897461 C-48.9358419 4.06613111 -48.9358419 4.06613111 -47 3 C-45.25420278 2.8103703 -43.50246524 2.67489633 -41.75 2.5625 C-37.38175898 2.261242 -33.02611572 1.91635682 -28.66796875 1.4921875 C-9.56799547 -0.3633416 -9.56799547 -0.3633416 0 0 Z " fill="#0A1F45" transform="translate(268,295)"/>
<path d="M0 0 C4.37045518 1.63097762 8.91068183 2.71444196 13.41796875 3.90234375 C13.41796875 4.56234375 13.41796875 5.22234375 13.41796875 5.90234375 C11.87640515 5.92976287 10.33469401 5.94892623 8.79296875 5.96484375 C7.50519531 5.98224609 7.50519531 5.98224609 6.19140625 6 C3.18281435 5.89406367 0.3791159 5.44073414 -2.58203125 4.90234375 C-4.87317986 4.54484106 -7.16485348 4.19068729 -9.45703125 3.83984375 C-11.18566406 3.57494141 -11.18566406 3.57494141 -12.94921875 3.3046875 C-14.25246094 3.10552734 -14.25246094 3.10552734 -15.58203125 2.90234375 C-15.58203125 1.58234375 -15.58203125 0.26234375 -15.58203125 -1.09765625 C-9.57891162 -2.14581999 -5.67469724 -2.17948549 0 0 Z " fill="#072E68" transform="translate(345.58203125,294.09765625)"/>
<path d="M0 0 C0.33 0 0.66 0 1 0 C0.9592334 0.91177002 0.9184668 1.82354004 0.87646484 2.76293945 C0.72880924 6.19756551 0.59228497 9.63228243 0.46289062 13.06762695 C0.40506102 14.54469148 0.3430023 16.02159753 0.27636719 17.49829102 C-0.11423952 26.22480004 -0.11893685 34.44505073 2 43 C-2.20594226 43.72795155 -4.80104745 44.04973814 -9 43 C-6.36 42.01 -3.72 41.02 -1 40 C-1.32355469 39.29875 -1.64710938 38.5975 -1.98046875 37.875 C-6.02681843 26.46460397 -1.87261203 11.59757767 0 0 Z " fill="#309649" transform="translate(185,140)"/>
<path d="M0 0 C0 0.66 0 1.32 0 2 C0.598125 2.226875 1.19625 2.45375 1.8125 2.6875 C4.62174735 4.37304841 5.63293699 6.05002192 7 9 C6.67 9.99 6.34 10.98 6 12 C5.34 11.67 4.68 11.34 4 11 C4 9.68 4 8.36 4 7 C3.34 7 2.68 7 2 7 C1.46375 6.38125 0.9275 5.7625 0.375 5.125 C-2.90856373 2.18707456 -5.70793174 1.85841365 -10 1 C-10 0.34 -10 -0.32 -10 -1 C-15.94 -0.505 -15.94 -0.505 -22 0 C-22.66 1.65 -23.32 3.3 -24 5 C-25.98 5 -27.96 5 -30 5 C-28.64905419 0.94716257 -26.62004582 0.12943872 -23 -2 C-15.1490633 -4.52410074 -7.34322998 -3.32523622 0 0 Z " fill="#1C953C" transform="translate(291,59)"/>
<path d="M0 0 C1.32 0 2.64 0 4 0 C4 0.66 4 1.32 4 2 C4.66 2 5.32 2 6 2 C6.33 1.34 6.66 0.68 7 0 C7.66 1.65 8.32 3.3 9 5 C9.99 5 10.98 5 12 5 C12 5.99 12 6.98 12 8 C12.74765625 8.04898438 13.4953125 8.09796875 14.265625 8.1484375 C15.25046875 8.22320312 16.2353125 8.29796875 17.25 8.375 C18.22453125 8.44460937 19.1990625 8.51421875 20.203125 8.5859375 C22.89633189 8.98465249 24.66963279 9.63507063 27 11 C19.5270085 10.62763444 11.88194286 10.20791759 5 7 C4.34 6.01 3.68 5.02 3 4 C2.01 9.61 1.02 15.22 0 21 C-0.33 21 -0.66 21 -1 21 C-1.94351599 13.46462229 -2.07726572 7.33152608 0 0 Z " fill="#22953D" transform="translate(279,140)"/>
<path d="M0 0 C0.66 0 1.32 0 2 0 C2.433125 0.928125 2.86625 1.85625 3.3125 2.8125 C4.7445373 5.51745934 5.85186916 6.9541611 8 9 C8 9.66 8 10.32 8 11 C8.5775 11.268125 9.155 11.53625 9.75 11.8125 C12 13 12 13 13.75 14.5 C16.44266855 16.29511236 18.85824621 16.82835127 22 17.47265625 C24 18 24 18 25.828125 19.01953125 C28.7989053 20.36065689 31.50786081 20.43047165 34.75 20.625 C35.92046875 20.69976562 37.0909375 20.77453125 38.296875 20.8515625 C39.18890625 20.90054687 40.0809375 20.94953125 41 21 C41 21.33 41 21.66 41 22 C30.94390157 23.47988683 21.28786787 23.37749931 12.6875 17.3125 C6.99334672 12.52180319 1.67987756 7.46612249 0 0 Z " fill="#298040" transform="translate(154,260)"/>
<path d="M0 0 C1.2910019 2.58200381 1.36704872 5.08654524 1.62109375 7.9296875 C2.04260662 10.23279905 2.87044742 11.96040303 4 14 C10.31446538 13.71935709 13.72375368 12.62741935 19 9 C21.21779012 8.36041259 23.42775278 7.92755335 25.6953125 7.5 C28.66895795 6.85487014 31.38065555 5.7817604 34.203125 4.6640625 C36.43103859 3.84070313 38.65629015 3.36620466 41 3 C41 3.66 41 4.32 41 5 C39.9584375 5.36351562 38.916875 5.72703125 37.84375 6.1015625 C37.15837158 6.34197266 36.47299316 6.58238281 35.7668457 6.83007812 C34.24262605 7.364581 32.71770973 7.89710096 31.19213867 8.42773438 C27.26402799 9.80473987 23.37322861 11.23038931 19.51953125 12.8046875 C18.81183594 13.08876465 18.10414063 13.3728418 17.375 13.66552734 C16.02876259 14.21020531 14.68844929 14.76983031 13.35546875 15.34619141 C10.07365456 16.66011858 8.16360687 17.03157325 4.66015625 16.35546875 C2 15 2 15 0.125 11.8125 C-1.01105363 7.96254047 -1.31900875 4.98760942 -1 1 C-0.67 0.67 -0.34 0.34 0 0 Z " fill="#071A3C" transform="translate(130,308)"/>
<path d="M0 0 C4.67259219 -0.3259948 7.29277083 0.07324013 11 3 C12.38938077 4.96147874 13.7260411 6.96166576 15 9 C15.54011719 9.43957031 16.08023437 9.87914062 16.63671875 10.33203125 C18 12 18 12 18.07421875 14.69921875 C17.88279297 16.17841797 17.88279297 16.17841797 17.6875 17.6875 C17.56761719 18.68136719 17.44773437 19.67523438 17.32421875 20.69921875 C17.21722656 21.45847656 17.11023438 22.21773437 17 23 C16.01 23.33 15.02 23.66 14 24 C14 24.99 14 25.98 14 27 C13.34 27 12.68 27 12 27 C12.495 25.7315625 12.495 25.7315625 13 24.4375 C14.66091683 18.7280984 14.59198221 14.63169146 12.0625 9.25 C9.93078347 5.63347513 8.16548023 4.26140194 4.1875 2.9375 C2.79968772 2.59111292 1.40536493 2.26637636 0 2 C0 1.34 0 0.68 0 0 Z " fill="#1C8E3B" transform="translate(350,230)"/>
<path d="M0 0 C0.97582031 0.00902344 1.95164062 0.01804687 2.95703125 0.02734375 C4.06111328 0.04474609 4.06111328 0.04474609 5.1875 0.0625 C4.8575 0.7225 4.5275 1.3825 4.1875 2.0625 C3.053125 2.041875 1.91875 2.02125 0.75 2 C-3.82032755 1.9918241 -8.28488262 2.47558664 -12.8125 3.0625 C-13.1425 4.0525 -13.4725 5.0425 -13.8125 6.0625 C-20.36094225 10.15527641 -30.21344189 6.73190588 -37.375 5.5 C-38.19291016 5.36142578 -39.01082031 5.22285156 -39.85351562 5.08007812 C-41.84022915 4.7431501 -43.82642199 4.40315416 -45.8125 4.0625 C-45.8125 3.4025 -45.8125 2.7425 -45.8125 2.0625 C-44.52214844 2.2790625 -43.23179687 2.495625 -41.90234375 2.71875 C-40.18494352 3.00029102 -38.46749289 3.28152475 -36.75 3.5625 C-35.90244141 3.70558594 -35.05488281 3.84867188 -34.18164062 3.99609375 C-24.47695729 5.67527194 -24.47695729 5.67527194 -15.1875 3.125 C-10.08610692 0.55588688 -5.69597722 -0.06862623 0 0 Z " fill="#34884B" transform="translate(343.8125,124.9375)"/>
<path d="M0 0 C0.66 0 1.32 0 2 0 C2 4.29 2 8.58 2 13 C3.14339844 13.06058594 4.28679687 13.12117187 5.46484375 13.18359375 C6.95574305 13.26798428 8.44662775 13.35263302 9.9375 13.4375 C11.06961914 13.49647461 11.06961914 13.49647461 12.22460938 13.55664062 C17.88671875 13.88671875 17.88671875 13.88671875 19 15 C19.14115161 17.67058851 19.04247107 20.32432238 19 23 C18.67 23 18.34 23 18 23 C18 20.69 18 18.38 18 16 C16.95199219 16.03480469 15.90398437 16.06960937 14.82421875 16.10546875 C13.44532853 16.13360937 12.06642098 16.16090924 10.6875 16.1875 C9.65206055 16.22520508 9.65206055 16.22520508 8.59570312 16.26367188 C3.52807686 16.33711573 3.52807686 16.33711573 1.06640625 14.765625 C-0.22571578 12.62628742 -0.53199204 11.04862926 -0.75 8.5625 C-0.82734375 7.80066406 -0.9046875 7.03882813 -0.984375 6.25390625 C-1.00011551 3.98333821 -0.65133656 2.1661875 0 0 Z " fill="#298F45" transform="translate(134,233)"/>
<path d="M0 0 C2.475 0.99 2.475 0.99 5 2 C5 2.66 5 3.32 5 4 C5.5775 4.226875 6.155 4.45375 6.75 4.6875 C9.5663661 6.33038023 11.08077114 8.39533227 13 11 C12.67 11.33 12.34 11.66 12 12 C9.29891496 11.909084 6.63069689 11.76259234 3.9375 11.5625 C3.17888672 11.51029297 2.42027344 11.45808594 1.63867188 11.40429688 C-0.24121722 11.27424165 -2.12065685 11.13771962 -4 11 C-1.33333333 9.66666667 1.33333333 8.33333333 4 7 C3.24849977 3.72226496 3.24849977 3.72226496 0 2 C0 1.34 0 0.68 0 0 Z " fill="#2B9842" transform="translate(378,209)"/>
<path d="M0 0 C-0.33 1.32 -0.66 2.64 -1 4 C-1.99 4 -2.98 4 -4 4 C-4.433125 4.928125 -4.433125 4.928125 -4.875 5.875 C-6 8 -6 8 -8 10 C-10.53092047 16.08763068 -11.02710405 22.60988059 -11.85546875 29.09570312 C-11.97535156 29.96775391 -12.09523437 30.83980469 -12.21875 31.73828125 C-12.32123047 32.53274658 -12.42371094 33.32721191 -12.52929688 34.14575195 C-12.68462891 34.75765381 -12.83996094 35.36955566 -13 36 C-13.99 36.495 -13.99 36.495 -15 37 C-14.57950207 33.47692139 -14.1355395 29.95717347 -13.6875 26.4375 C-13.51057617 24.9515332 -13.51057617 24.9515332 -13.33007812 23.43554688 C-12.2447166 15.05878225 -10.118594 8.87811069 -5 2 C-2 0 -2 0 0 0 Z " fill="#308B47" transform="translate(261,108)"/>
<path d="M0 0 C0 0.66 0 1.32 0 2 C-0.6084375 2.24621094 -1.216875 2.49242188 -1.84375 2.74609375 C-4.97952239 4.56961356 -5.98228671 7.09528564 -7.65625 10.22265625 C-9 12 -9 12 -11.15625 12.74609375 C-11.7646875 12.82988281 -12.373125 12.91367188 -13 13 C-13.12117187 14.03640625 -13.24234375 15.0728125 -13.3671875 16.140625 C-13.53607181 17.51046438 -13.70536411 18.88025349 -13.875 20.25 C-13.99294922 21.27287109 -13.99294922 21.27287109 -14.11328125 22.31640625 C-14.56645833 25.90696311 -15.09385738 28.892507 -17 32 C-16.23966993 19.99478835 -15.50774177 12.02113998 -7 3 C-2.90909091 0 -2.90909091 0 0 0 Z " fill="#318543" transform="translate(203,106)"/>
<path d="M0 0 C0.33 0 0.66 0 1 0 C1.02465881 3.96930989 1.04284023 7.93859034 1.05493164 11.90795898 C1.05997057 13.25920386 1.06680177 14.61044326 1.07543945 15.96166992 C1.08752419 17.90020434 1.09269828 19.838778 1.09765625 21.77734375 C1.10289307 22.94515381 1.10812988 24.11296387 1.11352539 25.31616211 C1 28 1 28 0 29 C-1.51928038 29.07179964 -3.04167482 29.08392007 -4.5625 29.0625 C-5.38878906 29.05347656 -6.21507812 29.04445312 -7.06640625 29.03515625 C-8.02353516 29.01775391 -8.02353516 29.01775391 -9 29 C-9 28.34 -9 27.68 -9 27 C-6.36 27 -3.72 27 -1 27 C-1.00523682 26.21761963 -1.01047363 25.43523926 -1.01586914 24.62915039 C-1.03657106 21.10694167 -1.04963838 17.5847457 -1.0625 14.0625 C-1.07087891 12.83080078 -1.07925781 11.59910156 -1.08789062 10.33007812 C-1.09111328 9.16025391 -1.09433594 7.99042969 -1.09765625 6.78515625 C-1.10289307 5.70113525 -1.10812988 4.61711426 -1.11352539 3.50024414 C-1 1 -1 1 0 0 Z " fill="#2A8D3F" transform="translate(349,128)"/>
<path d="M0 0 C11.87574469 0.43594506 23.31838477 1.82762945 35 4 C35 4.66 35 5.32 35 6 C33.52093108 6.02689216 32.04172517 6.04634621 30.5625 6.0625 C29.32693359 6.07990234 29.32693359 6.07990234 28.06640625 6.09765625 C26 6 26 6 25 5 C23.32060224 4.72648793 21.63199737 4.50898701 19.94140625 4.31640625 C18.91595703 4.19330078 17.89050781 4.07019531 16.83398438 3.94335938 C14.65729482 3.68995373 12.48020768 3.43993964 10.30273438 3.19335938 C9.27599609 3.06896484 8.24925781 2.94457031 7.19140625 2.81640625 C6.24467041 2.70756104 5.29793457 2.59871582 4.32250977 2.48657227 C2 2 2 2 0 0 Z " fill="#081F4A" transform="translate(298,286)"/>
<path d="M0 0 C-4.47832814 4.47832814 -12.93438046 6.68430965 -19.1484375 7.32421875 C-21.45507615 7.31430483 -23.70645529 7.23780994 -26 7 C-25.67 6.34 -25.34 5.68 -25 5 C-22.890625 4.4375 -22.890625 4.4375 -20.25 4 C-16.59074648 3.33893998 -13.42567349 2.46814578 -10 1 C-6.59819704 0.14954926 -3.50243869 -0.10006968 0 0 Z " fill="#208D3D" transform="translate(314,245)"/>
<path d="M0 0 C2.89573237 1.44786618 3.59287023 3.55499304 5.125 6.375 C5.66382813 7.35210937 6.20265625 8.32921875 6.7578125 9.3359375 C8 12 8 12 8 15 C8.66 15 9.32 15 10 15 C10.81302325 16.45804169 11.62540131 17.91644315 12.4375 19.375 C12.88996094 20.18710938 13.34242188 20.99921875 13.80859375 21.8359375 C14.5650536 23.20996622 15.29854631 24.59709261 16 26 C15.01 26 14.02 26 13 26 C12.773125 25.38125 12.54625 24.7625 12.3125 24.125 C10.62070165 21.38589791 9.00755839 20.94975528 6 20 C6.04125 19.13375 6.0825 18.2675 6.125 17.375 C5.99340431 13.82191646 5.43478939 11.24715494 4 8 C3.01 7.67 2.02 7.34 1 7 C1 5.68 1 4.36 1 3 C0.34 3 -0.32 3 -1 3 C-0.67 2.01 -0.34 1.02 0 0 Z " fill="#1D7239" transform="translate(331,157)"/>
<path d="M0 0 C0.33 0.66 0.66 1.32 1 2 C-0.46484375 3.10677083 -1.9296875 4.21354167 -3.39453125 5.3203125 C-7.91984875 10.05482959 -8.49091672 15.16296837 -8.6875 21.375 C-8.72166016 22.11105469 -8.75582031 22.84710938 -8.79101562 23.60546875 C-8.87272789 25.40313853 -8.93805781 27.20154046 -9 29 C-9.66 28.67 -10.32 28.34 -11 28 C-12.75065433 20.63030999 -11.95773991 14.49596413 -8.25 7.875 C-5.74238177 4.67082115 -3.21006532 2.48050502 0 0 Z " fill="#2D9047" transform="translate(206,58)"/>
<path d="M0 0 C2.02045442 0.60183749 4.02111039 1.27306096 6 2 C6.33 2.66 6.66 3.32 7 4 C8.64363134 4.72159424 10.31050386 5.39351421 12 6 C12 6.66 12 7.32 12 8 C20.415 7.505 20.415 7.505 29 7 C24.05598522 10.29600985 19.78346547 10.64767516 14 10 C7.60511929 8.1891519 3.79895457 5.39206455 0 0 Z " fill="#2E7F42" transform="translate(259,90)"/>
<path d="M0 0 C0.66 0.66 1.32 1.32 2 2 C-3.35440584 8.66067394 -8.57113855 14.48959903 -17 17 C-17.99 16.67 -18.98 16.34 -20 16 C-18.2984375 15.38125 -18.2984375 15.38125 -16.5625 14.75 C-15.386875 14.1725 -14.21125 13.595 -13 13 C-12.76023438 11.99839844 -12.76023438 11.99839844 -12.515625 10.9765625 C-12.34546875 10.32429688 -12.1753125 9.67203125 -12 9 C-10.29296875 8.1640625 -10.29296875 8.1640625 -8.1875 7.625 C-3.59091694 6.1478216 -2.23740433 4.19513311 0 0 Z " fill="#23833A" transform="translate(215,264)"/>
<path d="M0 0 C5.03786734 7.55680102 4.59334558 16.31680125 3 25 C2.01 26.32 1.02 27.64 0 29 C0 19.43 0 9.86 0 0 Z " fill="#1B8433" transform="translate(381,232)"/>
<path d="M0 0 C0.66 0 1.32 0 2 0 C1.25 4.75 1.25 4.75 -1 7 C-1.46290221 9.66242821 -1.46290221 9.66242821 -1.625 12.625 C-1.69976562 13.62789062 -1.77453125 14.63078125 -1.8515625 15.6640625 C-1.90054687 16.43492188 -1.94953125 17.20578125 -2 18 C-1.34 18 -0.68 18 0 18 C0 19.98 0 21.96 0 24 C-2 23 -2 23 -3.125 20.4375 C-5.02540724 12.97161443 -4.02308042 7.89262335 -1 1 C-0.67 0.67 -0.34 0.34 0 0 Z " fill="#2F8B44" transform="translate(259,65)"/>
<path d="M0 0 C0.33 0.66 0.66 1.32 1 2 C-0.07543783 2.98783194 -1.16073217 3.96493943 -2.25 4.9375 C-3.15492188 5.75541016 -3.15492188 5.75541016 -4.078125 6.58984375 C-6.08467305 8.06212799 -7.57002449 8.57529189 -10 9 C-10 9.66 -10 10.32 -10 11 C-10.66 11 -11.32 11 -12 11 C-12 11.66 -12 12.32 -12 13 C-15.46153846 16 -15.46153846 16 -18 16 C-18 15.34 -18 14.68 -18 14 C-17.34 14 -16.68 14 -16 14 C-15.75894531 13.41347656 -15.51789063 12.82695312 -15.26953125 12.22265625 C-13.75653781 9.57375388 -12.12011828 8.26503004 -9.6875 6.4375 C-8.88828125 5.83679688 -8.0890625 5.23609375 -7.265625 4.6171875 C-4.91377799 2.93845532 -2.53450191 1.38988814 0 0 Z " fill="#22853B" transform="translate(169,187)"/>
<path d="M0 0 C0.33 0 0.66 0 1 0 C0.85917465 3.79186964 0.71140653 7.58343979 0.5625 11.375 C0.50352539 12.96634766 0.50352539 12.96634766 0.44335938 14.58984375 C0.18406826 21.09206713 -0.26216036 27.53417092 -1 34 C-1.33 34 -1.66 34 -2 34 C-3.79230945 22.36078564 -1.94611845 11.50216362 0 0 Z " fill="#258F3C" transform="translate(185,140)"/>
<path d="M0 0 C0.66 0 1.32 0 2 0 C2.433125 0.928125 2.86625 1.85625 3.3125 2.8125 C4.7445373 5.51745934 5.85186916 6.9541611 8 9 C8 9.66 8 10.32 8 11 C8.5775 11.268125 9.155 11.53625 9.75 11.8125 C12.05550043 13.02929189 14.02056192 14.30333879 16 16 C16 16.66 16 17.32 16 18 C9.1786914 15.67077267 4.62717954 10.74586548 1 4.625 C0 2 0 2 0 0 Z " fill="#258C43" transform="translate(154,260)"/>
<path d="M0 0 C1.39025391 -0.02126953 1.39025391 -0.02126953 2.80859375 -0.04296875 C5.74083373 0.20242438 7.90111389 0.96548423 10.5625 2.1875 C7.5625 3.1875 7.5625 3.1875 4.5625 2.1875 C3.08563889 2.09502619 1.60474499 2.05750929 0.125 2.0625 C-0.63683594 2.05992188 -1.39867187 2.05734375 -2.18359375 2.0546875 C-4.43730073 2.18748826 -6.314079 2.41492635 -8.4375 3.1875 C-9.73410434 5.67784386 -9.73410434 5.67784386 -10.4375 8.1875 C-12.4175 8.1875 -14.3975 8.1875 -16.4375 8.1875 C-15.08655419 4.13466257 -13.05754582 3.31693872 -9.4375 1.1875 C-6.27708531 0.15837337 -3.31317435 0.02297624 0 0 Z " fill="#2F8F43" transform="translate(277.4375,55.8125)"/>
<path d="M0 0 C0.66 0 1.32 0 2 0 C1.17812739 4.38332057 0.09845718 8.67940177 -1 13 C-1.66 13 -2.32 13 -3 13 C-3 15.64 -3 18.28 -3 21 C-3.99 21 -4.98 21 -6 21 C-4.29977612 13.87352969 -2.42080258 6.9165788 0 0 Z " fill="#298D42" transform="translate(276,199)"/>
<path d="M0 0 C4 1.33333333 8 2.66666667 12 4 C11.67 4.99 11.34 5.98 11 7 C7.7 6.34 4.4 5.68 1 5 C0.67 3.35 0.34 1.7 0 0 Z " fill="#0A2655" transform="translate(359,298)"/>
<path d="M0 0 C1.45792884 -0.05399736 2.91642712 -0.09279177 4.375 -0.125 C5.18710938 -0.14820313 5.99921875 -0.17140625 6.8359375 -0.1953125 C9 0 9 0 11 2 C7.7 2.33 4.4 2.66 1 3 C-0.32 6.63 -1.64 10.26 -3 14 C-4.50112347 9.49662959 -3.43752584 6.92755479 -1.4375 2.6875 C-0.7259375 1.3571875 -0.7259375 1.3571875 0 0 Z " fill="#258D3F" transform="translate(221,250)"/>
<path d="M0 0 C0 0.66 0 1.32 0 2 C-0.62648437 2.23074219 -1.25296875 2.46148437 -1.8984375 2.69921875 C-7.12227926 4.6234904 -7.12227926 4.6234904 -10.5625 8.75 C-10.706875 9.4925 -10.85125 10.235 -11 11 C-11.33 11 -11.66 11 -12 11 C-11.82696897 5.7225537 -11.82696897 5.7225537 -11 3 C-7.36837772 0.35882016 -4.45061728 -0.39270152 0 0 Z " fill="#092854" transform="translate(142,304)"/>
<path d="M0 0 C-3.69418201 1.231394 -6.2056261 0.64432764 -10 0 C-10 -0.66 -10 -1.32 -10 -2 C-16.435 -1.505 -16.435 -1.505 -23 -1 C-23 -1.66 -23 -2.32 -23 -3 C-14.02027421 -4.49662096 -7.95352966 -4.73827299 0 0 Z " fill="#1CA03C" transform="translate(230,61)"/>
<path d="M0 0 C0.33 0 0.66 0 1 0 C1.33 3.3 1.66 6.6 2 10 C-0.475 11.485 -0.475 11.485 -3 13 C-4.23593891 9.29218328 -3.5678132 8.32489747 -2.0625 4.8125 C-1.68222656 3.91144531 -1.30195313 3.01039063 -0.91015625 2.08203125 C-0.60980469 1.39496094 -0.30945313 0.70789063 0 0 Z " fill="#1A9438" transform="translate(139,219)"/>
<path d="M0 0 C0 0.66 0 1.32 0 2 C-2.08201528 2.50546036 -4.16567067 3.00416835 -6.25 3.5 C-7.41015625 3.7784375 -8.5703125 4.056875 -9.765625 4.34375 C-13 5 -13 5 -17 5 C-17 4.34 -17 3.68 -17 3 C-15.10614563 2.49255577 -13.20981334 1.99435426 -11.3125 1.5 C-9.72888672 1.08234375 -9.72888672 1.08234375 -8.11328125 0.65625 C-5.28857328 0.0608285 -2.87163292 -0.12786492 0 0 Z " fill="#08234B" transform="translate(188,290)"/>
<path d="M0 0 C0.66 0 1.32 0 2 0 C2 0.66 2 1.32 2 2 C3.98 1.67 5.96 1.34 8 1 C8 1.99 8 2.98 8 4 C8.74765625 4.04898438 9.4953125 4.09796875 10.265625 4.1484375 C11.25046875 4.22320312 12.2353125 4.29796875 13.25 4.375 C14.22453125 4.44460937 15.1990625 4.51421875 16.203125 4.5859375 C18.89633189 4.98465249 20.66963279 5.63507063 23 7 C7.58845164 6.23207061 7.58845164 6.23207061 1 3 C0.67 2.01 0.34 1.02 0 0 Z " fill="#2F8946" transform="translate(283,144)"/>
<path d="M0 0 C2 2 2 2 2.125 5.625 C2.08375 6.73875 2.0425 7.8525 2 9 C2.33 9 2.66 9 3 9 C3 10.65 3 12.3 3 14 C2.34 14 1.68 14 1 14 C-0.99851462 9.8780636 -1.25785684 6.55547083 -1 2 C-0.67 1.34 -0.34 0.68 0 0 Z " fill="#0BA72E" transform="translate(317,244)"/>
<path d="M0 0 C-0.53625 0.2475 -1.0725 0.495 -1.625 0.75 C-6.24193882 3.1799678 -10.14033719 5.55163563 -13 10 C-13.51264032 6.41151779 -13.13857753 5.19487465 -11 2.1875 C-6.96985387 -0.75114822 -4.88409122 -0.41390604 0 0 Z " fill="#2C8D43" transform="translate(348,231)"/>
<path d="M0 0 C0 0.66 0 1.32 0 2 C-0.60585937 2.24492188 -1.21171875 2.48984375 -1.8359375 2.7421875 C-4.39688016 4.23067764 -5.19909663 5.55837394 -6.625 8.125 C-7.8515625 10.3203125 -7.8515625 10.3203125 -9 12 C-9.66 12 -10.32 12 -11 12 C-10.17271383 7.31204503 -9.42646367 4.9032679 -5.5 2.0625 C-2.36977492 0 -2.36977492 0 0 0 Z " fill="#2C9445" transform="translate(203,106)"/>
<path d="M0 0 C0.99 0.33 1.98 0.66 3 1 C2.67 2.98 2.34 4.96 2 7 C1.34 7 0.68 7 0 7 C0 7.66 0 8.32 0 9 C-0.99 9 -1.98 9 -3 9 C-1.125 2.25 -1.125 2.25 0 0 Z " fill="#0AA52F" transform="translate(378,256)"/>
<path d="M0 0 C3 3 3 3 4.5 6.0625 C5.81589255 9.23025749 5.81589255 9.23025749 9 11 C9 11.66 9 12.32 9 13 C8.34 13 7.68 13 7 13 C7 12.34 7 11.68 7 11 C5.02 10.34 3.04 9.68 1 9 C0.67 6.03 0.34 3.06 0 0 Z " fill="#23893E" transform="translate(171,250)"/>
<path d="M0 0 C0 3 0 3 -1.875 4.9375 C-2.57625 5.618125 -3.2775 6.29875 -4 7 C-5.23512079 9.13309192 -5.23512079 9.13309192 -6 11 C-6.66 10.67 -7.32 10.34 -8 10 C-7.9375 7.8125 -7.9375 7.8125 -7 5 C-4.8282781 3.06842043 -2.47398953 1.51798313 0 0 Z " fill="#1D9C39" transform="translate(155,200)"/>
<path d="M0 0 C0.99 0 1.98 0 3 0 C5.10770759 2.88834003 6 4.38462395 6 8 C5.01 8 4.02 8 3 8 C0.19744677 5.0936485 0 4.21174952 0 0 Z " fill="#1C9336" transform="translate(320,264)"/>
<path d="M0 0 C0.99 0 1.98 0 3 0 C4.60546875 2.1875 4.60546875 2.1875 6.1875 5 C6.71730469 5.928125 7.24710937 6.85625 7.79296875 7.8125 C8.19128906 8.534375 8.58960938 9.25625 9 10 C8.01 10 7.02 10 6 10 C5.6596875 9.071875 5.6596875 9.071875 5.3125 8.125 C3.62070165 5.38589791 2.00755839 4.94975528 -1 4 C-0.67 2.68 -0.34 1.36 0 0 Z " fill="#218A3C" transform="translate(338,173)"/>
<path d="M0 0 C0 0.99 0 1.98 0 3 C-6.52307692 3.36923077 -6.52307692 3.36923077 -8.9375 1.5 C-9.4634375 0.7575 -9.4634375 0.7575 -10 0 C-6.7169902 -1.6415049 -3.57454967 -0.51888624 0 0 Z " fill="#1F9C42" transform="translate(338,153)"/>
<path d="M0 0 C4.60388896 -0.32120156 7.38920743 0.00820044 11 3 C11.8125 5.6875 11.8125 5.6875 12 8 C11.319375 7.38125 10.63875 6.7625 9.9375 6.125 C6.54118766 3.6680932 4.03981179 2.95054395 0 2 C0 1.34 0 0.68 0 0 Z " fill="#2B8D44" transform="translate(350,230)"/>
<path d="M0 0 C0.33 0.99 0.66 1.98 1 3 C0.00390625 4.82421875 0.00390625 4.82421875 -1.4375 6.6875 C-1.91058594 7.31011719 -2.38367188 7.93273437 -2.87109375 8.57421875 C-3.24363281 9.04472656 -3.61617188 9.51523437 -4 10 C-4.103125 9.360625 -4.20625 8.72125 -4.3125 8.0625 C-4.539375 7.381875 -4.76625 6.70125 -5 6 C-5.99 5.67 -6.98 5.34 -8 5 C-6.02 4.67 -4.04 4.34 -2 4 C-2 3.34 -2 2.68 -2 2 C-1.34 2 -0.68 2 0 2 C0 1.34 0 0.68 0 0 Z " fill="#1B8C3A" transform="translate(380,261)"/>
<path d="M0 0 C0.66 0 1.32 0 2 0 C2 1.98 2 3.96 2 6 C2.66 6 3.32 6 4 6 C4 6.66 4 7.32 4 8 C2.02 8.33 0.04 8.66 -2 9 C-2.33 8.34 -2.66 7.68 -3 7 C-2.34 7 -1.68 7 -1 7 C-0.67 4.69 -0.34 2.38 0 0 Z " fill="#1E8931" transform="translate(294,220)"/>
<path d="M0 0 C11.52164009 0.96355353 11.52164009 0.96355353 17 2 C17 2.33 17 2.66 17 3 C12.38 3 7.76 3 3 3 C3 2.34 3 1.68 3 1 C2.01 0.67 1.02 0.34 0 0 Z " fill="#1D9C3A" transform="translate(299,129)"/>
<path d="M0 0 C2.02045442 0.60183749 4.02111039 1.27306096 6 2 C6.33 2.66 6.66 3.32 7 4 C8.64363134 4.72159424 10.31050386 5.39351421 12 6 C12 6.33 12 6.66 12 7 C9.375 7.4375 9.375 7.4375 6 7 C3.66877878 4.9050512 1.82671379 2.53926173 0 0 Z " fill="#299741" transform="translate(259,90)"/>
<path d="M0 0 C1.32 0.33 2.64 0.66 4 1 C3.34 4.63 2.68 8.26 2 12 C1.67 12 1.34 12 1 12 C0.87625 10.88625 0.7525 9.7725 0.625 8.625 C0.3534187 4.96896323 0.3534187 4.96896323 -2 3 C-1.34 3 -0.68 3 0 3 C0 2.01 0 1.02 0 0 Z " fill="#139F34" transform="translate(314,241)"/>
<path d="M0 0 C3.33557632 2.9905167 5.15083921 5.93184627 7 10 C6.01 10 5.02 10 4 10 C4 9.01 4 8.02 4 7 C3.01 7 2.02 7 1 7 C0.34 5.02 -0.32 3.04 -1 1 C-0.67 0.67 -0.34 0.34 0 0 Z " fill="#299145" transform="translate(347,185)"/>
<path d="M0 0 C2.00720923 0.28674418 4.0085944 0.61866701 6 1 C4.38405168 3.04119788 2.7143618 5.04072937 1 7 C0.34 7 -0.32 7 -1 7 C-1.04254356 5.00045254 -1.04080783 2.99958364 -1 1 C-0.67 0.67 -0.34 0.34 0 0 Z " fill="#25943F" transform="translate(289,90)"/>
<path d="M0 0 C-0.33 1.65 -0.66 3.3 -1 5 C-3.31 4.67 -5.62 4.34 -8 4 C-6.4425489 0.88509781 -3.40085499 0 0 0 Z " fill="#10A232" transform="translate(369,272)"/>
<path d="M0 0 C0.66 0 1.32 0 2 0 C2 3.96 2 7.92 2 12 C1.67 11.34 1.34 10.68 1 10 C0.34 10 -0.32 10 -1 10 C-0.67 6.7 -0.34 3.4 0 0 Z " fill="#238B3A" transform="translate(134,233)"/>
<path d="M0 0 C0.33 0.66 0.66 1.32 1 2 C1.66 2.33 2.32 2.66 3 3 C2.67 4.65 2.34 6.3 2 8 C1.67 7.01 1.34 6.02 1 5 C-1.64 4.67 -4.28 4.34 -7 4 C-4.35261084 2.5393715 -3.10551666 2 0 2 C0 1.34 0 0.68 0 0 Z " fill="#1CA240" transform="translate(309,146)"/>
<path d="M0 0 C3.77300358 1.0197307 4.80206144 1.65872662 6.8125 5.125 C7.204375 6.07375 7.59625 7.0225 8 8 C6.68 8.33 5.36 8.66 4 9 C3.896875 8.21625 3.79375 7.4325 3.6875 6.625 C3.22404978 3.66954819 3.22404978 3.66954819 0 2 C0 1.34 0 0.68 0 0 Z " fill="#1E943A" transform="translate(378,209)"/>
<path d="M0 0 C0.99 0 1.98 0 3 0 C1.79157144 4.43090471 0.48331435 6.98112756 -3 10 C-3.66 9.67 -4.32 9.34 -5 9 C-4.0409375 7.88625 -4.0409375 7.88625 -3.0625 6.75 C-1.21666593 4.2888879 -0.43930826 2.96533074 0 0 Z " fill="#25863D" transform="translate(200,251)"/>
<path d="M0 0 C3.80881639 1.44472346 5.29742886 3.32603071 7 7 C6.67 7.99 6.34 8.98 6 10 C5.34 9.67 4.68 9.34 4 9 C4 7.68 4 6.36 4 5 C3.34 5 2.68 5 2 5 C1.34 3.35 0.68 1.7 0 0 Z " fill="#2B8E48" transform="translate(291,61)"/>
<path d="M0 0 C3.96 0 7.92 0 12 0 C12 0.99 12 1.98 12 3 C6.06 2.01 6.06 2.01 0 1 C0 0.67 0 0.34 0 0 Z " fill="#169736" transform="translate(256,228)"/>
<path d="M0 0 C1.32 0 2.64 0 4 0 C3.8125 1.875 3.8125 1.875 3 4 C0.4375 5.25 0.4375 5.25 -2 6 C-1.34 4.02 -0.68 2.04 0 0 Z " fill="#21933C" transform="translate(229,91)"/>
<path d="M0 0 C1.24270671 2.48541343 0.95365685 3.76415379 0.625 6.5 C0.53476563 7.2940625 0.44453125 8.088125 0.3515625 8.90625 C0 11 0 11 -1 13 C-1.66 13 -2.32 13 -3 13 C-2.69240822 11.02006459 -2.3787932 9.04106401 -2.0625 7.0625 C-1.88847656 5.96035156 -1.71445313 4.85820312 -1.53515625 3.72265625 C-1 1 -1 1 0 0 Z " fill="#1B8733" transform="translate(255,201)"/>
<path d="M0 0 C0.66 0 1.32 0 2 0 C1.6875 1.9375 1.6875 1.9375 1 4 C-2.47325181 5.1577506 -5.36067448 5.06866652 -9 5 C-6.92690266 3.88941214 -5.11381589 3.02601506 -2.8125 2.5 C-2.214375 2.335 -1.61625 2.17 -1 2 C-0.67 1.34 -0.34 0.68 0 0 Z " fill="#1CA342" transform="translate(226,93)"/>
<path d="M0 0 C0.66 0.33 1.32 0.66 2 1 C1.01 3.31 0.02 5.62 -1 8 C-1.66 8 -2.32 8 -3 8 C-3.33 8.66 -3.66 9.32 -4 10 C-3.29445932 6.33118845 -1.72264494 3.29549466 0 0 Z " fill="#2E8648" transform="translate(237,83)"/>
<path d="M0 0 C0.33 0.66 0.66 1.32 1 2 C0.67 2.99 0.34 3.98 0 5 C-2.5625 6.1875 -2.5625 6.1875 -5 7 C-5.33 6.01 -5.66 5.02 -6 4 C-4.02 2.68 -2.04 1.36 0 0 Z " fill="#1B8934" transform="translate(361,257)"/>
<path d="M0 0 C4.42974974 1.47658325 5.96862506 4.93725011 8 9 C4.20620942 7.50958227 2.31656242 5.30937488 0 2 C0 1.34 0 0.68 0 0 Z " fill="#318B43" transform="translate(197,87)"/>
<path d="M0 0 C1.98 0 3.96 0 6 0 C5 2 5 2 2.6875 3.1875 C-0.11989571 4.03624754 -1.301935 3.99928333 -4 3 C-3.01 3 -2.02 3 -1 3 C-0.67 2.01 -0.34 1.02 0 0 Z " fill="#299344" transform="translate(325,129)"/>
<path d="M0 0 C4 6 4 6 3.625 8.1875 C3.41875 8.785625 3.2125 9.38375 3 10 C0.64551835 7.44931155 0.01672076 6.28982642 -0.1875 2.75 C-0.125625 1.8425 -0.06375 0.935 0 0 Z " fill="#177B3A" transform="translate(333,249)"/>
</svg>
